<?xml version="1.0"?>
<!DOCTYPE svg PUBLIC '-//W3C//DTD SVG 1.0//EN'
'http://www.w3.org/TR/2001/REC-SVG-20010904/DTD/svg10.dtd'>
<svg fill-opacity="1" xmlns:xlink="http://www.w3.org/1999/xlink" color-rendering="auto" color-interpolation="auto" text-rendering="auto" stroke="black" stroke-linecap="square" width="711" stroke-miterlimit="10" shape-rendering="auto" stroke-opacity="1" fill="black" stroke-dasharray="none" font-weight="normal" stroke-width="1" height="195" xmlns="http://www.w3.org/2000/svg" font-family="'Dialog'" font-style="normal" stroke-linejoin="miter" font-size="12px" stroke-dashoffset="0" image-rendering="auto"><defs id="genericDefs"/><g><defs id="1963475175261-defs1"><clipPath clipPathUnits="userSpaceOnUse" id="1963475175552-clipPath1"><path d="M0 0 L711 0 L711 195 L0 195 L0 0 Z"/></clipPath><clipPath clipPathUnits="userSpaceOnUse" id="1963475175748-clipPath1"><path d="M-37.7771 -3.0853 L673.2228 -3.0853 L673.2228 191.9147 L-37.7771 191.9147 L-37.7771 -3.0853 Z"/></clipPath><clipPath clipPathUnits="userSpaceOnUse" id="1963475175347-clipPath1"><path d="M-74.5687 -107.924 L636.4313 -107.924 L636.4313 87.076 L-74.5687 87.076 L-74.5687 -107.924 Z"/></clipPath><clipPath clipPathUnits="userSpaceOnUse" id="1963475175856-clipPath1"><path d="M-277.5717 -3.0853 L433.4283 -3.0853 L433.4283 191.9147 L-277.5717 191.9147 L-277.5717 -3.0853 Z"/></clipPath><clipPath clipPathUnits="userSpaceOnUse" id="1963475175135-clipPath1"><path d="M-241.7305 -107.924 L469.2695 -107.924 L469.2695 87.076 L-241.7305 87.076 L-241.7305 -107.924 Z"/></clipPath><clipPath clipPathUnits="userSpaceOnUse" id="1963475175816-clipPath1"><path d="M-643.801 -107.924 L67.199 -107.924 L67.199 87.076 L-643.801 87.076 L-643.801 -107.924 Z"/></clipPath><clipPath clipPathUnits="userSpaceOnUse" id="1963475175708-clipPath1"><path d="M-607.9598 -3.0853 L103.0402 -3.0853 L103.0402 191.9147 L-607.9598 191.9147 L-607.9598 -3.0853 Z"/></clipPath><clipPath clipPathUnits="userSpaceOnUse" id="1963475175326-clipPath1"><path d="M-404.0064 -107.924 L306.9936 -107.924 L306.9936 87.076 L-404.0064 87.076 L-404.0064 -107.924 Z"/></clipPath><clipPath clipPathUnits="userSpaceOnUse" id="1963475175114-clipPath1"><path d="M-440.8007 -3.0853 L270.1993 -3.0853 L270.1993 191.9147 L-440.8007 191.9147 L-440.8007 -3.0853 Z"/></clipPath><clipPath clipPathUnits="userSpaceOnUse" id="1963475175663-clipPath1"><path d="M46.7077 147.6662 L61.1299 147.6662 L61.1299 161.745 L46.7077 161.745 L46.7077 147.6662 Z"/></clipPath><clipPath clipPathUnits="userSpaceOnUse" id="1963475175679-clipPath1"><path d="M259.7127 147.5518 L274.4783 147.5518 L274.4783 161.2872 L259.7127 161.2872 L259.7127 147.5518 Z"/></clipPath><clipPath clipPathUnits="userSpaceOnUse" id="1963475175882-clipPath1"><path d="M424.2937 147.5503 L439.0592 147.5503 L439.0592 161.2857 L424.2937 161.2857 L424.2937 147.5503 Z"/></clipPath><clipPath clipPathUnits="userSpaceOnUse" id="1963475175420-clipPath1"><path d="M624.7957 148.6196 L639.9047 148.6196 L639.9047 162.355 L624.7957 162.355 L624.7957 148.6196 Z"/></clipPath></defs><g text-rendering="geometricPrecision"><path d="M88.1119 82.7243 L88.1119 82.7243 L124.4296 61.7565 C124.8517 61.5128 125.3914 61.6575 125.6351 62.0795 C125.8788 62.5016 125.7342 63.0413 125.3121 63.285 L125.3121 63.285 L88.9943 84.2528 C88.5723 84.4964 88.0325 84.3518 87.7888 83.9297 C87.5452 83.5077 87.6898 82.9679 88.1119 82.7243 Z" stroke="none" clip-path="url(#1963475175552-clipPath1)"/></g><g text-rendering="geometricPrecision"><path d="M88.1118 84.2527 L88.1118 84.2527 L51.7968 63.285 C51.3747 63.0413 51.2301 62.5016 51.4738 62.0795 C51.7175 61.6574 52.2573 61.5128 52.6793 61.7565 L52.6793 61.7565 L88.9944 82.7243 C89.4164 82.968 89.561 83.5077 89.3173 83.9298 C89.0736 84.3518 88.5339 84.4964 88.1118 84.2527 Z" stroke="none" clip-path="url(#1963475175552-clipPath1)"/></g><g text-rendering="geometricPrecision"><path d="M52.6793 63.285 L52.6793 63.285 L16.3616 84.2528 C15.9395 84.4964 15.3998 84.3518 15.1561 83.9297 C14.9124 83.5077 15.057 82.9679 15.4791 82.7243 L15.4791 82.7243 L51.7968 61.7565 C52.2189 61.5128 52.7586 61.6575 53.0023 62.0795 C53.246 62.5016 53.1014 63.0413 52.6793 63.285 Z" stroke="none" clip-path="url(#1963475175552-clipPath1)"/></g><g text-rendering="geometricPrecision"><path d="M52.2381 62.5208 L53.1206 62.5208 L56.6505 37.0938 L52.2381 37.0938 L47.8257 37.0938 L51.3556 62.5208 Z" stroke="none" clip-path="url(#1963475175552-clipPath1)"/></g><g text-rendering="geometricPrecision"><path d="M88.5531 83.4885 L87.6706 83.4885 L84.1407 108.6558 L88.5531 108.6558 L92.9655 108.6558 L89.4356 83.4885 Z" stroke="none" clip-path="url(#1963475175552-clipPath1)"/></g><g text-rendering="geometricPrecision"><path d="M255.2737 84.2527 L255.2737 84.2527 L218.9586 63.285 C218.5366 63.0413 218.392 62.5016 218.6357 62.0795 C218.8794 61.6574 219.4191 61.5128 219.8412 61.7565 L219.8412 61.7565 L256.1562 82.7243 C256.5782 82.968 256.7228 83.5077 256.4792 83.9298 C256.2354 84.3518 255.6957 84.4964 255.2737 84.2527 Z" stroke="none" clip-path="url(#1963475175552-clipPath1)"/></g><g text-rendering="geometricPrecision"><path d="M255.2737 82.7243 L255.2737 82.7243 L291.5914 61.7565 C292.0135 61.5128 292.5532 61.6575 292.7969 62.0795 C293.0406 62.5016 292.896 63.0413 292.4739 63.285 L292.4739 63.285 L256.1562 84.2528 C255.7341 84.4964 255.1944 84.3518 254.9507 83.9297 C254.707 83.5077 254.8516 82.9679 255.2737 82.7243 Z" stroke="none" clip-path="url(#1963475175552-clipPath1)"/></g><g text-rendering="geometricPrecision"><path d="M292.4739 61.7565 L292.4739 61.7565 L328.7916 82.7243 C329.2137 82.9679 329.3583 83.5077 329.1147 83.9297 C328.871 84.3518 328.3312 84.4964 327.9091 84.2528 L327.9091 84.2528 L291.5914 63.285 C291.1693 63.0413 291.0247 62.5016 291.2684 62.0795 C291.5121 61.6575 292.0518 61.5128 292.4739 61.7565 Z" stroke="none" clip-path="url(#1963475175552-clipPath1)"/></g><g text-rendering="geometricPrecision"><path d="M290.1521 55.3317 L290.3972 57.0966 L293.6682 57.0966 L293.6682 57.0966 L293.9132 55.3317 L293.9132 55.3317 L290.1521 55.3317 ZM288.8862 46.2127 L289.1312 47.9777 L289.1312 47.9777 L294.9341 47.9777 L295.1791 46.2127 L288.8862 46.2127 ZM287.6202 37.0938 L287.8653 38.8587 L287.8653 38.8587 L296.2 38.8587 L296.2 38.8587 L296.4451 37.0938 L296.4451 37.0938 L292.0327 37.0938 L287.6202 37.0938 Z" stroke="none" clip-path="url(#1963475175552-clipPath1)"/></g><g text-rendering="geometricPrecision"><path d="M257.5693 90.4178 L257.3217 88.6529 L254.1081 88.6529 L254.1081 88.6529 L253.8605 90.4178 L253.8605 90.4178 L257.5693 90.4178 ZM258.8483 99.5368 L258.6007 97.7718 L258.6007 97.7718 L252.8291 97.7718 L252.5815 99.5368 L258.8483 99.5368 ZM260.1273 108.6558 L259.8798 106.8908 L259.8798 106.8908 L251.5501 106.8908 L251.5501 106.8908 L251.3025 108.6558 L255.7149 108.6558 L260.1273 108.6558 Z" stroke="none" clip-path="url(#1963475175552-clipPath1)"/></g><g text-rendering="geometricPrecision"><path d="M622.3854 63.285 L622.3854 63.285 L586.0704 84.2527 C585.6483 84.4964 585.1086 84.3518 584.8649 83.9298 C584.6212 83.5077 584.7658 82.968 585.1879 82.7243 L585.1879 82.7243 L621.5029 61.7565 C621.925 61.5128 622.4647 61.6574 622.7084 62.0795 C622.9521 62.5016 622.8075 63.0413 622.3854 63.285 Z" stroke="none" clip-path="url(#1963475175552-clipPath1)"/></g><g text-rendering="geometricPrecision"><path d="M622.3854 61.7565 L622.3854 61.7565 L658.7031 82.7243 C659.1252 82.9679 659.2698 83.5077 659.0262 83.9297 C658.7825 84.3518 658.2428 84.4964 657.8207 84.2528 L657.8207 84.2528 L621.5029 63.285 C621.0809 63.0413 620.9362 62.5016 621.1799 62.0795 C621.4236 61.6575 621.9633 61.5128 622.3854 61.7565 Z" stroke="none" clip-path="url(#1963475175552-clipPath1)"/></g><g text-rendering="geometricPrecision"><path d="M657.8207 82.7243 L657.8207 82.7243 L694.1384 61.7565 C694.5605 61.5128 695.1002 61.6575 695.3439 62.0795 C695.5876 62.5016 695.443 63.0413 695.0209 63.285 L695.0209 63.285 L658.7031 84.2528 C658.2811 84.4964 657.7413 84.3518 657.4977 83.9297 C657.254 83.5077 657.3986 82.9679 657.8207 82.7243 Z" stroke="none" clip-path="url(#1963475175552-clipPath1)"/></g><g text-rendering="geometricPrecision"><path d="M658.2619 83.4885 L657.3795 83.4885 L653.8495 108.9155 L658.2619 108.9155 L662.6743 108.9155 L659.1444 83.4885 Z" stroke="none" clip-path="url(#1963475175552-clipPath1)"/></g><g text-rendering="geometricPrecision"><path d="M621.9442 62.5208 L622.8267 62.5208 L626.3566 37.7129 L621.9442 37.7129 L617.5318 37.7129 L621.0617 62.5208 Z" stroke="none" clip-path="url(#1963475175552-clipPath1)"/></g><g text-rendering="geometricPrecision"><path d="M455.2263 61.7565 L455.2263 61.7565 L491.5414 82.7243 C491.9634 82.968 492.108 83.5077 491.8643 83.9298 C491.6206 84.3518 491.0809 84.4964 490.6588 84.2527 L490.6588 84.2527 L454.3438 63.285 C453.9218 63.0413 453.7772 62.5016 454.0208 62.0795 C454.2646 61.6574 454.8043 61.5128 455.2263 61.7565 Z" stroke="none" clip-path="url(#1963475175552-clipPath1)"/></g><g text-rendering="geometricPrecision"><path d="M455.2263 63.285 L455.2263 63.285 L418.9086 84.2528 C418.4865 84.4964 417.9468 84.3518 417.7031 83.9297 C417.4594 83.5077 417.604 82.9679 418.0261 82.7243 L418.0261 82.7243 L454.3438 61.7565 C454.7659 61.5128 455.3057 61.6575 455.5493 62.0795 C455.793 62.5016 455.6484 63.0413 455.2263 63.285 Z" stroke="none" clip-path="url(#1963475175552-clipPath1)"/></g><g text-rendering="geometricPrecision"><path d="M418.0261 84.2528 L418.0261 84.2528 L381.7084 63.285 C381.2863 63.0413 381.1417 62.5016 381.3853 62.0795 C381.629 61.6575 382.1688 61.5128 382.5909 61.7565 L382.5909 61.7565 L418.9086 82.7243 C419.3307 82.9679 419.4753 83.5077 419.2316 83.9297 C418.9879 84.3518 418.4482 84.4964 418.0261 84.2528 Z" stroke="none" clip-path="url(#1963475175552-clipPath1)"/></g><g text-rendering="geometricPrecision"><path d="M420.3479 90.6776 L420.1028 88.9126 L420.1028 88.9126 L416.8318 88.9126 L416.8318 88.9126 L416.5868 90.6776 L416.5868 90.6776 L420.3479 90.6776 ZM421.6138 99.7966 L421.3688 98.0316 L421.3688 98.0316 L415.5659 98.0316 L415.5659 98.0316 L415.3209 99.7966 L415.3209 99.7966 L421.6138 99.7966 ZM422.8798 108.9155 L422.6347 107.1506 L422.6347 107.1506 L414.3 107.1506 L414.3 107.1506 L414.0549 108.9155 L418.4673 108.9155 L422.8798 108.9155 Z" stroke="none" clip-path="url(#1963475175552-clipPath1)"/></g><g text-rendering="geometricPrecision"><path d="M452.9678 55.9508 L453.2189 57.7158 L453.2189 57.7158 L456.3513 57.7158 L456.3513 57.7158 L456.6024 55.9508 L452.9678 55.9508 ZM451.6702 46.8319 L451.9214 48.5968 L451.9214 48.5968 L457.6488 48.5968 L457.6488 48.5968 L457.9 46.8319 L451.6702 46.8319 ZM450.3727 37.7129 L450.6238 39.4779 L450.6238 39.4779 L458.9464 39.4779 L459.1975 37.7129 L454.7851 37.7129 L450.3727 37.7129 Z" stroke="none" clip-path="url(#1963475175552-clipPath1)"/></g><g text-rendering="geometricPrecision" font-size="29px" font-family="'Arial'" transform="translate(37.7771,3.0853)"><text x="0" xml:space="preserve" y="28" clip-path="url(#1963475175748-clipPath1)" stroke="none">Br</text></g><g text-rendering="geometricPrecision" font-size="29px" font-family="'Arial'" transform="translate(74.5687,107.924)"><text x="0" xml:space="preserve" y="28" clip-path="url(#1963475175347-clipPath1)" stroke="none">Cl</text></g><g text-rendering="geometricPrecision" font-size="29px" font-family="'Arial'" transform="translate(277.5717,3.0853)"><text x="0" xml:space="preserve" y="28" clip-path="url(#1963475175856-clipPath1)" stroke="none">Br</text></g><g text-rendering="geometricPrecision" font-size="29px" font-family="'Arial'" transform="translate(241.7305,107.924)"><text x="0" xml:space="preserve" y="28" clip-path="url(#1963475175135-clipPath1)" stroke="none">Cl</text></g><g text-rendering="geometricPrecision" font-size="29px" font-family="'Arial'" transform="translate(643.801,107.924)"><text x="0" xml:space="preserve" y="28" clip-path="url(#1963475175816-clipPath1)" stroke="none">Br</text></g><g text-rendering="geometricPrecision" font-size="29px" font-family="'Arial'" transform="translate(607.9598,3.0853)"><text x="0" xml:space="preserve" y="28" clip-path="url(#1963475175708-clipPath1)" stroke="none">Cl</text></g><g text-rendering="geometricPrecision" font-size="29px" font-family="'Arial'" transform="translate(404.0064,107.924)"><text x="0" xml:space="preserve" y="28" clip-path="url(#1963475175326-clipPath1)" stroke="none">Br</text></g><g text-rendering="geometricPrecision" font-size="29px" font-family="'Arial'" transform="translate(440.8007,3.0853)"><text x="0" xml:space="preserve" y="28" clip-path="url(#1963475175114-clipPath1)" stroke="none">Cl</text></g><g text-rendering="geometricPrecision" font-size="10px" font-weight="bold" font-family="sans-serif" transform="matrix(2.9122,0,0,2.9122,-90.0215,-283.0313)"><text x="47.0778" xml:space="preserve" y="159.0146" clip-path="url(#1963475175663-clipPath1)" stroke="none">(A)</text></g><g text-rendering="geometricPrecision" font-size="10px" font-weight="bold" font-family="sans-serif" transform="matrix(2.9122,0,0,2.9122,-497.3314,-282.6981)"><text x="260.0854" xml:space="preserve" y="158.8404" clip-path="url(#1963475175679-clipPath1)" stroke="none">(B)</text></g><g text-rendering="geometricPrecision" font-size="10px" font-weight="bold" font-family="sans-serif" transform="matrix(2.9122,0,0,2.9122,-811.6215,-282.6936)"><text x="424.4472" xml:space="preserve" y="158.838" clip-path="url(#1963475175882-clipPath1)" stroke="none">(C)</text></g><g text-rendering="geometricPrecision" font-size="10px" font-weight="bold" font-family="sans-serif" transform="matrix(2.9122,0,0,2.9122,-1195.5205,-284.8077)"><text x="625.2119" xml:space="preserve" y="159.9436" clip-path="url(#1963475175420-clipPath1)" stroke="none">(D)</text></g></g></svg>
